<mxfile host="app.diagrams.net" modified="2023-11-13T19:32:19.432Z" agent="Mozilla/5.0 (Windows NT 10.0; Win64; x64) AppleWebKit/537.36 (KHTML, like Gecko) Chrome/119.0.0.0 Safari/537.36" etag="AC0VutqA-DoKKUaQrOS-" version="21.7.2" type="device">
  <diagram name="PÃ¡gina-1" id="mqRZYwGNiA1XDmZ_Vemc">
    <mxGraphModel dx="1434" dy="746" grid="1" gridSize="10" guides="1" tooltips="1" connect="1" arrows="1" fold="1" page="1" pageScale="1" pageWidth="827" pageHeight="1169" math="0" shadow="0">
      <root>
        <mxCell id="0" />
        <mxCell id="1" parent="0" />
        <mxCell id="Ln9ZIR9ktjDv_TVUUBGJ-16" value="MongoDb" style="shape=cylinder3;whiteSpace=wrap;html=1;boundedLbl=1;backgroundOutline=1;size=15;" vertex="1" parent="1">
          <mxGeometry x="730" y="160" width="70" height="110" as="geometry" />
        </mxCell>
        <mxCell id="Ln9ZIR9ktjDv_TVUUBGJ-23" value="Vertical Container" style="swimlane;whiteSpace=wrap;html=1;" vertex="1" parent="1">
          <mxGeometry x="450" y="80" width="200" height="200" as="geometry">
            <mxRectangle x="310" y="140" width="140" height="30" as="alternateBounds" />
          </mxGeometry>
        </mxCell>
      </root>
    </mxGraphModel>
  </diagram>
</mxfile>
